<svg version="1.0"
  xmlns="http://www.w3.org/2000/svg" width="500.000000pt" height="500.000000pt" viewBox="0 0 500.000000 500.000000" preserveAspectRatio="xMidYMid meet">

  <g transform="translate(0.000000,500.000000) scale(0.100000,-0.100000)" fill="#000000" stroke="none">
    <path d="M2315 3728 c-30 -17 -35 -28 -35 -81 0 -42 -3 -49 -27 -59 -173 -71
-292 -149 -365 -239 -118 -148 -168 -329 -134 -489 24 -115 67 -194 152 -277
83 -81 164 -126 292 -163 l82 -24 0 -248 c0 -136 -3 -248 -6 -248 -23 0 -85
49 -114 91 -51 74 -67 89 -94 89 -34 0 -56 -25 -56 -65 0 -68 132 -206 229
-240 l36 -12 0 -69 c0 -63 -2 -69 -20 -66 -36 6 -159 69 -210 109 -66 51 -150
170 -173 245 -22 71 -43 98 -77 98 -35 0 -59 -40 -52 -88 11 -64 55 -162 98
-218 100 -130 204 -203 369 -259 l65 -22 5 -96 c3 -52 7 -97 10 -99 3 -2 12
-9 22 -16 23 -18 63 -5 77 24 8 18 11 182 11 550 0 496 1 525 18 520 9 -3 29
-8 45 -12 l27 -6 0 -518 c0 -285 3 -526 6 -535 11 -27 53 -38 80 -20 l24 15 0
515 c0 430 2 515 14 515 7 0 28 -3 45 -6 l31 -6 0 -500 0 -499 25 -24 c29 -30
49 -31 75 -5 17 17 20 33 20 113 l0 94 43 12 c23 7 84 32 135 57 73 35 107 59
165 117 86 87 88 89 131 169 131 241 91 494 -107 674 -66 61 -161 108 -276
137 l-86 22 -3 253 -2 253 28 -15 c30 -16 102 -90 102 -105 0 -5 12 -23 26
-40 29 -35 63 -40 87 -13 26 28 20 73 -15 129 -39 61 -93 110 -168 150 l-55
30 -3 66 c-2 37 1 67 6 67 24 0 113 -37 157 -65 63 -40 169 -155 201 -217 13
-26 29 -70 35 -98 12 -58 30 -80 65 -80 29 0 64 32 64 59 0 50 -45 158 -102
242 -49 73 -76 103 -141 151 -92 68 -148 98 -229 124 l-58 18 0 51 c0 61 -17
88 -54 88 -63 0 -61 15 -64 -527 l-3 -494 -33 8 c-19 4 -39 10 -45 14 -8 5
-11 145 -11 491 l0 485 -24 15 c-27 18 -69 7 -80 -20 -3 -9 -6 -226 -6 -481
l0 -464 -22 0 c-13 0 -33 3 -45 6 l-22 6 -3 465 -3 465 -24 19 c-27 22 -29 22
-56 7z m-37 -339 l3 -64 -48 -22 c-77 -35 -148 -105 -185 -181 -29 -59 -33
-76 -32 -147 0 -98 20 -142 94 -208 73 -66 118 -83 306 -123 527 -109 559
-118 647 -183 70 -51 115 -103 146 -171 23 -49 26 -67 25 -160 -1 -83 -6 -116
-23 -159 -50 -125 -157 -236 -290 -303 -109 -55 -113 -54 -109 33 l3 71 38 13
c68 23 143 89 189 167 42 70 43 75 43 158 0 63 -5 95 -19 122 -30 61 -92 124
-143 146 -26 11 -154 43 -283 71 -380 83 -451 102 -530 138 -93 42 -155 106
-208 211 -35 72 -37 81 -36 167 2 129 47 235 143 338 64 69 221 163 256 153 6
-1 11 -31 13 -67z m2 -394 c0 -177 -1 -185 -20 -185 -26 0 -84 52 -104 94 -36
76 -9 185 62 247 61 54 62 50 62 -156z m588 -729 c15 -8 42 -30 61 -50 28 -29
35 -45 39 -89 3 -38 -1 -65 -13 -91 -19 -40 -109 -126 -131 -126 -11 0 -14 34
-14 185 0 202 0 201 58 171z"/>
  </g>
</svg>
